<?xml version="1.0" encoding="utf-8"?>
<!-- Generator: Adobe Illustrator 24.2.1, SVG Export Plug-In . SVG Version: 6.00 Build 0)  -->
<svg version="1.0" id="Main__x28_Outline_x29_" xmlns="http://www.w3.org/2000/svg" xmlns:xlink="http://www.w3.org/1999/xlink"
	 x="0px" y="0px" viewBox="0 0 574.4 201.36" style="enable-background:new 0 0 574.4 201.36;" xml:space="preserve">
<style type="text/css">
	.st0{fill:#5B7F95;}
</style>
<g>
	<g>
		<path class="st0" d="M238.17,121.82c-2.68-2.9-4.02-6.79-4.02-11.64c0-4.81,1.38-8.7,4.13-11.62c2.75-2.92,6.44-4.39,11.07-4.39
			c3.58,0,6.59,0.99,9.01,2.99c2.42,2,3.89,4.66,4.39,8h-5.34c-1.05-4.02-4.06-6.44-8.28-6.44c-2.97,0-5.32,1.05-7.05,3.16
			c-1.76,2.13-2.64,4.9-2.64,8.31c0,3.41,0.86,6.15,2.59,8.28c1.71,2.13,4.04,3.19,6.97,3.19c4.33,0,7.38-2.37,8.37-6.42h5.34
			c-0.5,3.32-1.98,5.98-4.46,7.98c-2.48,2-5.54,2.99-9.21,2.99C244.47,126.19,240.85,124.74,238.17,121.82z"/>
		<path class="st0" d="M278,126.19c-3.52,0-6.35-1.08-8.5-3.25c-2.15-2.15-3.23-4.99-3.23-8.53c0-3.52,1.08-6.37,3.25-8.55
			c2.15-2.18,4.99-3.25,8.48-3.25s6.33,1.1,8.5,3.27c2.17,2.18,3.25,5.03,3.25,8.53c0,3.54-1.08,6.37-3.23,8.53
			C284.35,125.11,281.51,126.19,278,126.19z M278,122.06c2.02,0,3.67-0.72,4.92-2.15c1.25-1.43,1.87-3.25,1.87-5.49
			s-0.62-4.09-1.87-5.52c-1.25-1.43-2.9-2.13-4.92-2.13c-2.02,0-3.65,0.7-4.88,2.13c-1.25,1.43-1.87,3.25-1.87,5.52
			s0.62,4.09,1.87,5.52C274.35,121.36,275.98,122.06,278,122.06z"/>
		<path class="st0" d="M329.43,112.65v13.27h-4.86v-12.96c0-4.04-1.67-6.15-4.81-6.15c-1.67,0-2.99,0.59-3.98,1.78
			c-0.99,1.19-1.47,2.81-1.47,4.88v12.46h-4.9v-12.96c0-4.04-1.69-6.15-4.88-6.15c-1.65,0-2.97,0.62-3.93,1.85
			c-0.97,1.23-1.45,2.88-1.45,4.94v12.33h-4.86v-23.05h4.22l0.55,3.03c1.65-2.17,3.89-3.27,6.75-3.29c3.16,0,5.78,1.36,7.1,4.2
			c1.56-2.64,4.22-4.2,7.89-4.2C325.56,102.61,329.43,105.36,329.43,112.65z"/>
		<path class="st0" d="M354.65,105.78c2.02,2.13,3.03,5.01,3.03,8.63c0,3.54-1.01,6.37-3.05,8.53c-2.04,2.18-4.64,3.25-7.82,3.25
			c-3.34,0-5.82-1.16-7.47-3.49v12.24h-4.86v-32.06h4.22l0.59,3.43c1.87-2.46,4.37-3.69,7.51-3.69
			C350.01,102.61,352.63,103.67,354.65,105.78z M345.99,122.1c2,0,3.63-0.73,4.88-2.15c1.25-1.43,1.87-3.27,1.87-5.54
			c0-2.29-0.62-4.13-1.85-5.54c-1.25-1.41-2.88-2.11-4.9-2.11c-2,0-3.62,0.7-4.86,2.09c-1.23,1.41-1.85,3.23-1.85,5.47
			c0,2.31,0.62,4.2,1.85,5.62C342.36,121.38,343.99,122.1,345.99,122.1z"/>
		<path class="st0" d="M378,102.88h4.88v23.05h-4.28l-0.55-2.92c-1.76,2.13-4.13,3.19-7.1,3.19c-2.57,0-4.64-0.7-6.37-2.29
			c-1.74-1.56-2.72-4.39-2.72-8.2v-12.83h4.86v12.3c0,4.53,1.78,6.79,5.36,6.79c3.69,0,5.93-2.81,5.93-7.56V102.88z"/>
		<path class="st0" d="M390.05,107.16h-4v-4.28h4v-6.42h4.92v6.42h5.62v4.28h-5.62v12.02c0,1.82,0.62,2.46,2.46,2.46h3.43v4.29h-4.5
			c-4.37,0-6.31-2.04-6.31-6.26V107.16z"/>
		<path class="st0" d="M407.05,99.65c-0.86,0-1.56-0.29-2.11-0.83c-0.57-0.55-0.86-1.23-0.86-2.09c0-0.86,0.29-1.56,0.86-2.11
			c0.55-0.55,1.25-0.81,2.11-0.81c0.86,0,1.56,0.26,2.13,0.81c0.55,0.55,0.83,1.25,0.83,2.11c0,0.86-0.29,1.54-0.83,2.09
			C408.61,99.36,407.91,99.65,407.05,99.65z M404.59,125.93v-23.05h4.86v23.05H404.59z"/>
		<path class="st0" d="M436.25,113.09v12.83h-4.9v-12.41c0-4.39-1.87-6.7-5.49-6.7c-3.87,0-6.15,2.83-6.15,7.51v11.6h-4.86v-23.05
			h4.22l0.55,3.03c1.78-2.2,4.24-3.29,7.38-3.29C432.07,102.61,436.25,105.4,436.25,113.09z"/>
		<path class="st0" d="M459.42,102.88h4.22v22.1c0,6.5-3.76,10.22-11.78,10.22c-3.12,0-5.65-0.7-7.6-2.09
			c-1.96-1.41-3.03-3.38-3.25-5.93h4.97c0.59,2.57,2.83,4.07,6.24,4.07c4.42,0,6.61-2.15,6.61-6.44v-2.57
			c-1.69,2.53-4.2,3.78-7.52,3.78c-3.19,0-5.8-1.05-7.82-3.14c-2.04-2.09-3.05-4.94-3.05-8.55c0-3.49,1.03-6.33,3.08-8.48
			c2.04-2.15,4.64-3.23,7.8-3.23c3.36,0,5.87,1.3,7.56,3.87L459.42,102.88z M452.12,121.93c2,0,3.63-0.7,4.86-2.09
			c1.23-1.38,1.85-3.21,1.85-5.43c0-2.29-0.62-4.13-1.85-5.56c-1.23-1.43-2.86-2.13-4.86-2.13s-3.63,0.7-4.86,2.11
			c-1.23,1.43-1.85,3.25-1.85,5.49c0,2.26,0.62,4.09,1.85,5.49C448.5,121.22,450.13,121.93,452.12,121.93z"/>
	</g>
	<g>
		<path d="M123.33,112.38c0.23,3.32,1.64,5.99,4.12,8c2.48,2.01,5.71,3.04,9.78,3.04c3.42,0,6.18-0.7,8.28-2.15
			c2.11-1.45,3.18-3.46,3.18-6.04c0-1.45-0.19-2.53-1.03-3.51c-0.84-0.94-1.39-1.63-3.09-2.29c-0.88-0.35-1.64-0.66-2.29-0.89
			c-0.66-0.23-1.64-0.47-2.95-0.8c-1.31-0.28-5.57-1.17-7.3-1.5c-5.05-0.95-8.42-1.88-12.31-3.84c-1.96-0.99-3.54-2.12-4.77-3.46
			c-2.45-2.65-4.21-6.79-4.21-12.08c0-5.99,2.29-10.86,6.88-14.65c4.59-3.79,10.63-5.66,18.16-5.66c7.91,0,14.18,1.92,18.91,5.71
			c4.68,3.84,7.07,8.99,7.16,15.4h-14.09c-0.7-5.8-5.1-9.6-11.98-9.6c-6.37,0-10.53,2.71-10.53,7.77c0,1.54,0.56,2.81,1.26,3.74
			c0.7,0.94,2.57,1.83,3.98,2.39c0.7,0.28,1.73,0.56,3.09,0.89c1.36,0.33,2.53,0.61,3.6,0.8c1.03,0.23,2.53,0.52,4.45,0.89
			c2.57,0.47,4.82,0.98,6.74,1.5c1.87,0.51,3.79,1.26,5.8,2.25c2.01,0.98,3.63,2.08,4.87,3.37c2.48,2.58,4.21,6.74,4.16,11.98
			c-0.05,6.32-2.48,11.42-7.25,15.31c-4.82,3.88-11.14,5.85-18.96,5.85c-8.47,0-15.21-2.06-20.17-6.18
			c-5.01-4.07-7.54-9.55-7.58-16.43L123.33,112.38z"/>
		<path d="M169.89,134.24V67.12h27.33c7.3,0,13.15,2.01,17.6,6.09c4.45,4.07,6.65,9.5,6.65,16.29c0,6.74-2.2,12.12-6.65,16.15
			c-4.45,4.07-10.3,6.08-17.6,6.08h-12.96v22.51H169.89z M184.26,79.1v20.64h11.61c6.74,0,11-3.93,11-10.25
			c0-6.37-4.26-10.39-11-10.39H184.26z"/>
	</g>
	<g>
		<path d="M237.34,84.38c0.04,0.5,0.25,0.9,0.62,1.2c0.37,0.3,0.85,0.46,1.46,0.46c0.51,0,0.92-0.1,1.24-0.32
			c0.31-0.22,0.48-0.52,0.48-0.9c0-0.22-0.03-0.38-0.15-0.53c-0.13-0.14-0.21-0.24-0.46-0.34c-0.13-0.05-0.25-0.1-0.34-0.13
			c-0.1-0.04-0.25-0.07-0.44-0.12c-0.2-0.04-0.83-0.18-1.09-0.22c-0.76-0.14-1.26-0.28-1.84-0.57c-0.29-0.15-0.53-0.32-0.71-0.52
			c-0.37-0.4-0.63-1.02-0.63-1.81c0-0.9,0.34-1.62,1.03-2.19c0.69-0.57,1.59-0.85,2.72-0.85c1.18,0,2.12,0.29,2.83,0.85
			c0.7,0.58,1.06,1.34,1.07,2.3H241c-0.11-0.87-0.76-1.44-1.79-1.44c-0.95,0-1.58,0.41-1.58,1.16c0,0.23,0.08,0.42,0.19,0.56
			c0.1,0.14,0.38,0.27,0.59,0.36c0.11,0.04,0.26,0.08,0.46,0.13c0.2,0.05,0.38,0.09,0.54,0.12c0.15,0.04,0.38,0.08,0.67,0.13
			c0.39,0.07,0.72,0.15,1.01,0.22c0.28,0.08,0.57,0.19,0.87,0.34c0.3,0.15,0.54,0.31,0.73,0.5c0.37,0.39,0.63,1.01,0.62,1.79
			c-0.01,0.95-0.37,1.71-1.09,2.29c-0.72,0.58-1.67,0.88-2.84,0.88c-1.27,0-2.28-0.31-3.02-0.92c-0.75-0.61-1.13-1.43-1.13-2.46
			L237.34,84.38z"/>
		<path d="M246.21,86.35c-0.86-0.92-1.29-2.16-1.29-3.72c0-1.55,0.44-2.79,1.32-3.72c0.88-0.92,2.08-1.39,3.59-1.39
			c1.18,0,2.16,0.34,2.95,1.01c0.78,0.68,1.23,1.56,1.37,2.66h-2.18c-0.26-1.14-1.08-1.85-2.25-1.85c-0.81,0-1.44,0.3-1.91,0.9
			c-0.47,0.61-0.71,1.4-0.71,2.38c0,0.97,0.23,1.76,0.69,2.37c0.46,0.61,1.09,0.91,1.89,0.91c1.2,0,2.02-0.7,2.28-1.85h2.17
			c-0.12,1.1-0.58,1.98-1.39,2.65c-0.81,0.68-1.82,1.02-3.04,1.02C248.24,87.74,247.07,87.28,246.21,86.35z"/>
		<polygon points="256.09,87.65 256.09,77.61 258.24,77.61 258.24,81.65 262.22,81.65 262.22,77.61 264.38,77.61 264.38,87.65 
			262.22,87.65 262.22,83.51 258.24,83.51 258.24,87.65 		"/>
		<path d="M276.36,82.63c0,0.97-0.21,1.83-0.62,2.61c-0.41,0.78-1,1.39-1.76,1.83c-0.76,0.44-1.62,0.67-2.59,0.67
			c-0.97,0-1.83-0.22-2.59-0.67c-0.76-0.44-1.34-1.05-1.76-1.83c-0.41-0.78-0.62-1.65-0.62-2.61c0-0.97,0.21-1.83,0.62-2.61
			c0.41-0.78,0.99-1.39,1.76-1.83c0.76-0.44,1.62-0.67,2.59-0.67c0.97,0,1.83,0.22,2.59,0.67c0.76,0.44,1.35,1.05,1.76,1.83
			C276.15,80.8,276.36,81.67,276.36,82.63z M268.6,82.63c0,0.96,0.25,1.74,0.76,2.36c0.51,0.62,1.18,0.92,2.02,0.92
			c0.83,0,1.5-0.31,2.01-0.92c0.5-0.62,0.76-1.4,0.76-2.36c0-0.96-0.25-1.74-0.76-2.36c-0.51-0.62-1.18-0.92-2.01-0.92
			c-0.83,0-1.51,0.31-2.02,0.92C268.85,80.89,268.6,81.67,268.6,82.63z"/>
		<path d="M287.94,82.63c0,0.97-0.21,1.83-0.62,2.61c-0.41,0.78-1,1.39-1.76,1.83c-0.76,0.44-1.62,0.67-2.59,0.67
			c-0.97,0-1.83-0.22-2.59-0.67c-0.76-0.44-1.34-1.05-1.76-1.83c-0.41-0.78-0.62-1.65-0.62-2.61c0-0.97,0.21-1.83,0.62-2.61
			c0.41-0.78,0.99-1.39,1.76-1.83c0.76-0.44,1.62-0.67,2.59-0.67c0.97,0,1.83,0.22,2.59,0.67c0.76,0.44,1.35,1.05,1.76,1.83
			C287.73,80.8,287.94,81.67,287.94,82.63z M280.18,82.63c0,0.96,0.25,1.74,0.76,2.36c0.51,0.62,1.18,0.92,2.02,0.92
			c0.83,0,1.5-0.31,2.01-0.92c0.5-0.62,0.76-1.4,0.76-2.36c0-0.96-0.25-1.74-0.76-2.36c-0.51-0.62-1.18-0.92-2.01-0.92
			c-0.83,0-1.51,0.31-2.02,0.92C280.43,80.89,280.18,81.67,280.18,82.63z"/>
		<polygon points="296.11,87.65 289.97,87.65 289.97,77.61 292.12,77.61 292.12,85.81 296.11,85.81 		"/>
		<path d="M311.8,82.63c0,0.97-0.21,1.83-0.62,2.61c-0.41,0.78-1,1.39-1.76,1.83s-1.62,0.67-2.59,0.67c-0.97,0-1.83-0.22-2.59-0.67
			s-1.34-1.05-1.76-1.83c-0.41-0.78-0.62-1.65-0.62-2.61c0-0.97,0.21-1.83,0.62-2.61c0.41-0.78,0.99-1.39,1.76-1.83
			s1.62-0.67,2.59-0.67c0.97,0,1.83,0.22,2.59,0.67s1.35,1.05,1.76,1.83C311.59,80.8,311.8,81.67,311.8,82.63z M304.04,82.63
			c0,0.96,0.25,1.74,0.76,2.36c0.51,0.62,1.18,0.92,2.02,0.92c0.83,0,1.5-0.31,2.01-0.92c0.5-0.62,0.76-1.4,0.76-2.36
			c0-0.96-0.25-1.74-0.76-2.36c-0.51-0.62-1.18-0.92-2.01-0.92c-0.83,0-1.51,0.31-2.02,0.92C304.3,80.89,304.04,81.67,304.04,82.63z
			"/>
		<polygon points="313.83,87.65 313.83,77.61 320.46,77.61 320.46,79.47 315.98,79.47 315.98,81.81 319.65,81.81 319.65,83.58 
			315.98,83.58 315.98,87.65 		"/>
	</g>
</g>
</svg>
